<svg aria-hidden="true" style="position: absolute; width: 0; height: 0; overflow: hidden;" version="1.1" xmlns="http://www.w3.org/2000/svg" xmlns:xlink="http://www.w3.org/1999/xlink">
<defs>
<symbol id="icon-fa-code" >
<path  d="M12.124 27.339c-0.134 0.14-0.323 0.226-0.531 0.226s-0.397-0.087-0.531-0.226l-0-0-10.762-10.806c-0.139-0.135-0.225-0.324-0.225-0.533s0.086-0.398 0.225-0.533l0-0 10.762-10.806c0.134-0.139 0.323-0.226 0.531-0.226s0.397 0.087 0.531 0.226l0 0 1.156 1.159c0.139 0.135 0.225 0.324 0.225 0.533s-0.086 0.398-0.225 0.533l-0 0-9.077 9.114 9.076 9.112c0.139 0.135 0.226 0.324 0.226 0.534s-0.086 0.398-0.225 0.533l-0 0zM18.314 31.374c-0.116 0.394-0.531 0.626-0.901 0.51l-1.432-0.394c-0.313-0.096-0.537-0.382-0.537-0.721 0-0.074 0.011-0.145 0.030-0.213l-0.001 0.005 8.614-29.935c0.116-0.394 0.531-0.626 0.901-0.51l1.432 0.395c0.313 0.096 0.537 0.382 0.537 0.721 0 0.074-0.011 0.145-0.030 0.212l0.001-0.005zM31.338 27.339c-0.134 0.139-0.322 0.226-0.531 0.226s-0.397-0.087-0.531-0.226l-0-0-1.155-1.16c-0.139-0.135-0.225-0.324-0.225-0.533s0.086-0.398 0.225-0.533l0-0 9.076-9.113-9.076-9.114c-0.139-0.135-0.225-0.324-0.225-0.533s0.086-0.398 0.225-0.533l0-0 1.155-1.16c0.134-0.139 0.323-0.226 0.531-0.226s0.397 0.087 0.531 0.226l0 0 10.762 10.806c0.139 0.135 0.225 0.324 0.225 0.533s-0.086 0.398-0.225 0.533l-0 0z"></path>
</symbol>
<symbol id="icon-fa-font" >
<path  d="M14.988 8.978c1.468 3.022 2.729 6.25 3.804 9.417-0.393 0.021-0.786 0.042-1.178 0.042-2.047 0-4.094-0.062-6.14-0.083zM0 32c1.302 0 2.584-0.063 3.886-0.292 0.29-0.042 0.703-0.166 0.992-0.166 2.398 0 4.818 0.416 7.216 0.416 0.020-0.187 0.040-0.374 0.040-0.562 0-0.416 0-0.812-0.020-1.208-1.178-0.166-4.218-0.23-4.218-1.834 0-0.792 2.088-6.25 2.626-7.458l9.303 0.042c0.33 0.854 2.998 7.042 2.998 7.791 0 0.771-1.096 0.917-1.654 1.042l-2.709 0.584c-0.053 0.46-0.083 0.993-0.083 1.533 0 0.032 0 0.064 0 0.095l-0-0.005c2.708-0.083 5.416-0.312 8.125-0.312 2.625 0 5.25 0.334 7.876 0.334 0-0.188 0.021-0.354 0.021-0.542 0-0.395-0.062-0.791-0.124-1.187-0.972-0.375-2.874-0.5-3.556-1.042-0.29-0.229-0.578-0.854-0.723-1.187-1.034-2.125-1.758-4.354-2.688-6.521-1.571-3.667-2.998-7.396-4.548-11.084l-4.238-10c-0.062-0.145-0.145-0.29-0.227-0.437h-2.646l-5.789 15.084-4.899 12.833c-0.868 2.25-2.977 1.834-4.92 2.438z"></path>
</symbol>
<symbol id="icon-fa-support" >
<path  d="M31.339 16.236c0 8.656-7.013 15.67-15.67 15.67s-15.67-7.013-15.67-15.67c0-8.657 7.013-15.67 15.67-15.67s15.67 7.013 15.67 15.669zM9.356 4.379l3.393 3.393c0.927-0.315 1.906-0.49 2.921-0.49 1.032 0 1.994 0.175 2.92 0.49l3.393-3.393c-1.829-0.989-4.003-1.571-6.312-1.574h-0.001c-2.273 0-4.425 0.577-6.313 1.574zM7.205 19.156c-0.315-0.927-0.49-1.906-0.49-2.921 0-1.032 0.175-1.994 0.49-2.921l-3.393-3.393c-0.989 1.829-1.571 4.003-1.574 6.312v0.001c0 2.273 0.577 4.424 1.574 6.313zM21.983 28.093l-3.393-3.393c-0.87 0.31-1.874 0.489-2.92 0.49h-0c-1.014 0-1.994-0.175-2.921-0.49l-3.393 3.393c1.829 0.989 4.003 1.572 6.312 1.574h0.001c2.273 0 4.424-0.577 6.313-1.574zM22.385 16.236c0-3.707-3.008-6.715-6.715-6.715s-6.715 3.008-6.715 6.715 3.008 6.715 6.715 6.715 6.715-3.008 6.715-6.715zM27.527 22.549c0.989-1.829 1.571-4.003 1.574-6.312v-0.001c0-2.273-0.577-4.425-1.574-6.313l-3.393 3.393c0.315 0.927 0.49 1.906 0.49 2.92-0.002 1.046-0.181 2.050-0.509 2.984l0.019-0.063z"></path>
</symbol>
<symbol id="icon-google-plus" viewBox="0 0 32 32">
<path d="M10.181 14.294v3.494h5.775c-0.231 1.5-1.744 4.394-5.775 4.394-3.475 0-6.313-2.881-6.313-6.431s2.838-6.431 6.313-6.431c1.981 0 3.3 0.844 4.056 1.569l2.762-2.662c-1.775-1.656-4.075-2.662-6.819-2.662-5.631 0.006-10.181 4.556-10.181 10.188s4.55 10.181 10.181 10.181c5.875 0 9.775-4.131 9.775-9.95 0-0.669-0.075-1.181-0.163-1.688h-9.613z"></path>
<path d="M32 14h-3v-3h-3v3h-3v3h3v3h3v-3h3z"></path>
</symbol>
<symbol id="icon-facebook" viewBox="0 0 32 32">
<path d="M19 6h5v-6h-5c-3.86 0-7 3.14-7 7v3h-4v6h4v16h6v-16h5l1-6h-6v-3c0-0.542 0.458-1 1-1z"></path>
</symbol>
<symbol id="icon-twitter" viewBox="0 0 32 32">
<path d="M32 7.075c-1.175 0.525-2.444 0.875-3.769 1.031 1.356-0.813 2.394-2.1 2.887-3.631-1.269 0.75-2.675 1.3-4.169 1.594-1.2-1.275-2.906-2.069-4.794-2.069-3.625 0-6.563 2.938-6.563 6.563 0 0.512 0.056 1.012 0.169 1.494-5.456-0.275-10.294-2.888-13.531-6.862-0.563 0.969-0.887 2.1-0.887 3.3 0 2.275 1.156 4.287 2.919 5.463-1.075-0.031-2.087-0.331-2.975-0.819 0 0.025 0 0.056 0 0.081 0 3.181 2.263 5.838 5.269 6.437-0.55 0.15-1.131 0.231-1.731 0.231-0.425 0-0.831-0.044-1.237-0.119 0.838 2.606 3.263 4.506 6.131 4.563-2.25 1.762-5.075 2.813-8.156 2.813-0.531 0-1.050-0.031-1.569-0.094 2.913 1.869 6.362 2.95 10.069 2.95 12.075 0 18.681-10.006 18.681-18.681 0-0.287-0.006-0.569-0.019-0.85 1.281-0.919 2.394-2.075 3.275-3.394z"></path>
</symbol>
<symbol id="icon-linkedin" viewBox="0 0 32 32">
<path d="M12 12h5.535v2.837h0.079c0.77-1.381 2.655-2.837 5.464-2.837 5.842 0 6.922 3.637 6.922 8.367v9.633h-5.769v-8.54c0-2.037-0.042-4.657-3.001-4.657-3.005 0-3.463 2.218-3.463 4.509v8.688h-5.767v-18z"></path>
<path d="M2 12h6v18h-6v-18z"></path>
<path d="M8 7c0 1.657-1.343 3-3 3s-3-1.343-3-3c0-1.657 1.343-3 3-3s3 1.343 3 3z"></path>
</symbol>
<symbol id="icon-envelope" viewBox="0 0 44 32">
<path fill="#555" style="fill: var(--color1, #555)" d="M40.518 28.364c0 0.387-0.364 0.727-0.777 0.727h-35.846c-0.413 0-0.78-0.34-0.78-0.727v-17.455c0.512 0.544 1.073 1.044 1.681 1.498 4.413 3.131 7.79 5.654 11.117 8.238l-0.743-0.556c1.827 1.431 4.090 3.18 6.624 3.18h0.047c2.531 0 4.8-1.748 6.624-3.18 2.581-2.027 5.959-4.549 9.385-7.006l0.988-0.674c0.611-0.457 1.169-0.957 1.681-1.501zM40.518 4.474c0 1.935-1.996 4.457-3.578 5.615-3.264 2.385-6.525 4.797-9.766 7.206-1.289 0.975-3.628 3.069-5.332 3.069h-0.047c-1.705 0-4.044-2.092-5.335-3.069 0.748 0.435-2.43-1.93-5.618-4.284l-4.145-2.922c-2.193-1.612-3.578-3.863-3.578-6.452 0-0.387 0.364-0.727 0.777-0.727h35.846c0.925 0 0.78 0.998 0.78 1.565zM43.636 3.636c0-2.001-1.754-3.636-3.898-3.636h-35.84c-2.147 0-3.898 1.632-3.898 3.636v24.727c0 1.999 1.754 3.636 3.898 3.636h35.84c2.144 0 3.898-1.638 3.898-3.636z"></path>
</symbol>
<symbol id="icon-map-marker" viewBox="0 0 23 32">
<path fill="#555" style="fill: var(--color1, #555)" d="M16.941 10.665c0 2.936-2.537 5.335-5.647 5.335s-5.647-2.396-5.647-5.335c0-2.936 2.537-5.333 5.647-5.333s5.647 2.396 5.647 5.333zM22.588 10.665c0-5.896-5.052-10.665-11.294-10.665s-11.294 4.77-11.294 10.665c0 1.272 0.154 2.583 0.728 3.731l8.051 16.124c0.44 0.915 1.455 1.48 2.515 1.48 1.058 0 2.074-0.565 2.537-1.48l8.028-16.124c0.574-1.148 0.728-2.458 0.728-3.731z"></path>
</symbol>
<symbol id="icon-mobile-phone" viewBox="0 0 19 32">
<path fill="#555" style="fill: var(--color1, #555)" d="M11.6 28.8c0 1.099-0.901 2-2 2-1.101 0-2-0.901-2-2 0-1.101 0.899-2 2-2 1.099 0 2 0.899 2 2zM16.8 24.8c0 0.424-0.374 0.8-0.8 0.8h-12.8c-0.437-0.012-0.788-0.363-0.8-0.799l-0-0.001v-17.6c0-0.426 0.374-0.8 0.8-0.8h12.8c0.426 0 0.8 0.374 0.8 0.8zM12 3.6c0 0.224-0.176 0.4-0.4 0.4h-4c-0.224 0-0.4-0.176-0.4-0.4s0.176-0.4 0.4-0.4h4c0.224 0 0.4 0.176 0.4 0.4zM19.2 3.2c0-1.75-1.45-3.2-3.2-3.2h-12.8c-1.75 0-3.2 1.45-3.2 3.2v25.6c0 1.75 1.45 3.2 3.2 3.2h12.8c1.75 0 3.2-1.45 3.2-3.2z"></path>
</symbol>
</defs>
</svg>
