<svg aria-hidden="true" style="position:absolute;width:0;height:0" xmlns="http://www.w3.org/2000/svg" overflow="hidden"><defs><symbol id="icon-fa-code"><path d="M12.124 27.339a.733.733 0 01-1.062 0L.3 16.533a.74.74 0 010-1.066L11.062 4.661a.737.737 0 011.062 0L13.28 5.82a.74.74 0 010 1.066L4.203 16l9.076 9.112a.742.742 0 01.001 1.067zm6.19 4.035c-.116.394-.531.626-.901.51l-1.432-.394a.754.754 0 01-.507-.934l-.001.005L24.087.626c.116-.394.531-.626.901-.51l1.432.395a.754.754 0 01.507.933l.001-.005zm13.024-4.035a.735.735 0 01-1.062 0l-1.155-1.16a.74.74 0 010-1.066L38.197 16l-9.076-9.114a.74.74 0 010-1.066l1.155-1.16a.737.737 0 011.062 0L42.1 15.466a.74.74 0 010 1.066z"/></symbol><symbol id="icon-fa-font"><path d="M14.988 8.978c1.468 3.022 2.729 6.25 3.804 9.417-.393.021-.786.042-1.178.042-2.047 0-4.094-.062-6.14-.083zM0 32c1.302 0 2.584-.063 3.886-.292.29-.042.703-.166.992-.166 2.398 0 4.818.416 7.216.416.02-.187.04-.374.04-.562 0-.416 0-.812-.02-1.208-1.178-.166-4.218-.23-4.218-1.834 0-.792 2.088-6.25 2.626-7.458l9.303.042c.33.854 2.998 7.042 2.998 7.791 0 .771-1.096.917-1.654 1.042l-2.709.584c-.053.46-.083.993-.083 1.533v.095-.005c2.708-.083 5.416-.312 8.125-.312 2.625 0 5.25.334 7.876.334 0-.188.021-.354.021-.542 0-.395-.062-.791-.124-1.187-.972-.375-2.874-.5-3.556-1.042-.29-.229-.578-.854-.723-1.187-1.034-2.125-1.758-4.354-2.688-6.521-1.571-3.667-2.998-7.396-4.548-11.084l-4.238-10c-.062-.145-.145-.29-.227-.437h-2.646L9.86 15.084 4.961 27.917c-.868 2.25-2.977 1.834-4.92 2.438z"/></symbol><symbol id="icon-fa-support"><path d="M31.339 16.236c0 8.656-7.013 15.67-15.67 15.67s-15.67-7.013-15.67-15.67S7.012.566 15.669.566s15.67 7.013 15.67 15.669zM9.356 4.379l3.393 3.393a9.052 9.052 0 012.921-.49c1.032 0 1.994.175 2.92.49l3.393-3.393c-1.829-.989-4.003-1.571-6.312-1.574h-.001c-2.273 0-4.425.577-6.313 1.574zM7.205 19.156a9.052 9.052 0 01-.49-2.921c0-1.032.175-1.994.49-2.921L3.812 9.921c-.989 1.829-1.571 4.003-1.574 6.312v.001c0 2.273.577 4.424 1.574 6.313zm14.778 8.937L18.59 24.7c-.87.31-1.874.489-2.92.49a9.056 9.056 0 01-2.921-.49l-3.393 3.393c1.829.989 4.003 1.572 6.312 1.574h.001c2.273 0 4.424-.577 6.313-1.574zm.402-11.857c0-3.707-3.008-6.715-6.715-6.715s-6.715 3.008-6.715 6.715 3.008 6.715 6.715 6.715 6.715-3.008 6.715-6.715zm5.142 6.313c.989-1.829 1.571-4.003 1.574-6.312v-.001c0-2.273-.577-4.425-1.574-6.313l-3.393 3.393a9.05 9.05 0 01.49 2.92 9.04 9.04 0 01-.509 2.984l.019-.063z"/></symbol><symbol id="icon-google-plus" viewBox="0 0 32 32"><path d="M10.181 14.294v3.494h5.775c-.231 1.5-1.744 4.394-5.775 4.394-3.475 0-6.313-2.881-6.313-6.431S6.706 9.32 10.181 9.32c1.981 0 3.3.844 4.056 1.569l2.762-2.662c-1.775-1.656-4.075-2.662-6.819-2.662C4.549 5.571-.001 10.121-.001 15.753s4.55 10.181 10.181 10.181c5.875 0 9.775-4.131 9.775-9.95a9.27 9.27 0 00-.163-1.688h-9.613zM32 14h-3v-3h-3v3h-3v3h3v3h3v-3h3z"/></symbol><symbol id="icon-facebook" viewBox="0 0 32 32"><path d="M19 6h5V0h-5c-3.86 0-7 3.14-7 7v3H8v6h4v16h6V16h5l1-6h-6V7c0-.542.458-1 1-1z"/></symbol><symbol id="icon-twitter" viewBox="0 0 32 32"><path d="M32 7.075a12.941 12.941 0 01-3.769 1.031 6.601 6.601 0 002.887-3.631 13.21 13.21 0 01-4.169 1.594A6.565 6.565 0 0022.155 4a6.563 6.563 0 00-6.563 6.563c0 .512.056 1.012.169 1.494A18.635 18.635 0 012.23 5.195a6.56 6.56 0 00-.887 3.3 6.557 6.557 0 002.919 5.463 6.565 6.565 0 01-2.975-.819v.081a6.565 6.565 0 005.269 6.437 6.574 6.574 0 01-2.968.112 6.588 6.588 0 006.131 4.563 13.17 13.17 0 01-9.725 2.719 18.568 18.568 0 0010.069 2.95c12.075 0 18.681-10.006 18.681-18.681 0-.287-.006-.569-.019-.85A13.216 13.216 0 0032 7.076z"/></symbol><symbol id="icon-linkedin" viewBox="0 0 32 32"><path d="M12 12h5.535v2.837h.079c.77-1.381 2.655-2.837 5.464-2.837C28.92 12 30 15.637 30 20.367V30h-5.769v-8.54c0-2.037-.042-4.657-3.001-4.657-3.005 0-3.463 2.218-3.463 4.509V30H12V12zM2 12h6v18H2V12zM8 7a3 3 0 11-6 0 3 3 0 016 0z"/></symbol><symbol id="icon-envelope" viewBox="0 0 44 32"><path fill="var(--color1, #555)" d="M40.518 28.364c0 .387-.364.727-.777.727H3.895c-.413 0-.78-.34-.78-.727V10.909a12.919 12.919 0 001.681 1.498 306.898 306.898 0 0111.117 8.238l-.743-.556c1.827 1.431 4.09 3.18 6.624 3.18h.047c2.531 0 4.8-1.748 6.624-3.18 2.581-2.027 5.959-4.549 9.385-7.006l.988-.674a12.964 12.964 0 001.681-1.501zm0-23.89c0 1.935-1.996 4.457-3.578 5.615a1489.352 1489.352 0 00-9.766 7.206c-1.289.975-3.628 3.069-5.332 3.069h-.047c-1.705 0-4.044-2.092-5.335-3.069.748.435-2.43-1.93-5.618-4.284l-4.145-2.922C4.504 8.477 3.119 6.226 3.119 3.637c0-.387.364-.727.777-.727h35.846c.925 0 .78.998.78 1.565zm3.118-.838C43.636 1.635 41.882 0 39.738 0H3.898C1.751 0 0 1.632 0 3.636v24.727c0 1.999 1.754 3.636 3.898 3.636h35.84c2.144 0 3.898-1.638 3.898-3.636z"/></symbol><symbol id="icon-map-marker" viewBox="0 0 23 32"><path fill="var(--color1, #555)" d="M16.941 10.665c0 2.936-2.537 5.335-5.647 5.335s-5.647-2.396-5.647-5.335c0-2.936 2.537-5.333 5.647-5.333s5.647 2.396 5.647 5.333zm5.647 0C22.588 4.769 17.536 0 11.294 0S0 4.77 0 10.665c0 1.272.154 2.583.728 3.731L8.779 30.52c.44.915 1.455 1.48 2.515 1.48 1.058 0 2.074-.565 2.537-1.48l8.028-16.124c.574-1.148.728-2.458.728-3.731z"/></symbol><symbol id="icon-mobile-phone" viewBox="0 0 19 32"><path fill="var(--color1, #555)" d="M11.6 28.8c0 1.099-.901 2-2 2-1.101 0-2-.901-2-2 0-1.101.899-2 2-2 1.099 0 2 .899 2 2zm5.2-4c0 .424-.374.8-.8.8H3.2a.822.822 0 01-.8-.799V7.2c0-.426.374-.8.8-.8H16c.426 0 .8.374.8.8zM12 3.6c0 .224-.176.4-.4.4h-4c-.224 0-.4-.176-.4-.4s.176-.4.4-.4h4c.224 0 .4.176.4.4zm7.2-.4C19.2 1.45 17.75 0 16 0H3.2C1.45 0 0 1.45 0 3.2v25.6C0 30.55 1.45 32 3.2 32H16c1.75 0 3.2-1.45 3.2-3.2z"/></symbol></defs></svg>